<svg xmlns="http://www.w3.org/2000/svg" viewBox="0 0 461.91 46.35"><defs><style>.cls-1{fill:#fff;}</style></defs><g id="Layer_2" data-name="Layer 2"><g id="レイヤー_1" data-name="レイヤー 1"><path class="cls-1" d="M88.44,25.25v9.91c0,2.62.26,4,.77,4.17a11.05,11.05,0,0,0,2,.39l.42,0v2.17H77.76V39.75l.44,0c1.58-.11,2.53-.37,2.84-.8s.47-1.68.47-3.76V14c0-2.08-.16-3.33-.46-3.75s-1.25-.69-2.85-.82l-.44,0V7.26H91.62V9.44l-.42,0c-1.31.11-2.1.38-2.36.82a9.73,9.73,0,0,0-.4,3.75v9.23L98.56,14q3.73-3.42,3.74-4.06c0-.35-.78-.53-2.34-.53h-.42V7.26h10.55V9.44l-.42,0a7.84,7.84,0,0,0-2.76.49q-.52.32-4.79,4.2L94,21.62,105.77,35.2a36.14,36.14,0,0,0,3.81,3.91,5.32,5.32,0,0,0,2.68.61l.42,0v2.17H95.93V39.75h.42c1.93,0,2.9-.24,2.93-.71s-.9-1.64-2.74-3.91Z"/><path class="cls-1" d="M128,26.93,120.1,14.24c-1-1.57-1.54-2.47-1.66-2.7a4.91,4.91,0,0,0-1.19-1.71,8,8,0,0,0-2.37-.37l-.47,0V7.26h15V9.44h-.38q-2.71,0-2.76.75t2,4.08l5.89,9.66,6-9.66c1.33-2.13,2-3.44,2-3.94s-.76-.89-2.27-.89h-.52V7.26H149V9.44l-.42,0a6.09,6.09,0,0,0-2.35.42c-.18.17-1.15,1.63-2.92,4.36l-8,12.65v8.27c0,2.08.15,3.33.46,3.76s1.27.69,2.86.8l.42,0v2.17H124.22V39.75l.44,0c1.59-.11,2.53-.37,2.84-.8s.47-1.68.47-3.76Z"/><path class="cls-1" d="M170.24,42.79q-8.18,0-12.88-4.88t-4.71-13.32q0-8.44,4.71-13.32T170.24,6.4q8.14,0,12.86,4.87t4.71,13.32q0,8.43-4.71,13.32T170.24,42.79Zm0-2.29a8.19,8.19,0,0,0,7.45-4q2.48-4,2.47-12T177.7,12.64a9,9,0,0,0-14.88,0q-2.49,3.95-2.49,11.87t2.49,12A8.19,8.19,0,0,0,170.25,40.5Z"/><path class="cls-1" d="M192.58,41.92V39.75l.45,0c1.57-.11,2.52-.37,2.83-.8s.47-1.68.47-3.76V14c0-2.08-.15-3.33-.46-3.75s-1.25-.69-2.84-.82l-.45,0V7.26h11.27l5-.07,1.83,0q8.12,0,12.48,4.33t4.34,12.37q0,8.23-4.42,13.15t-11.86,4.9ZM203.52,9.56V35.13c0,1.91.29,3.11.86,3.6s2,.73,4.21.73q5.66,0,8.46-3.89t2.82-11.7q0-7.78-3.13-11T206.15,9.56Z"/><path class="cls-1" d="M251,42.79q-8.18,0-12.88-4.88T233.4,24.59q0-8.44,4.71-13.32T251,6.4q8.14,0,12.86,4.87t4.7,13.32q0,8.43-4.7,13.32T251,42.79Zm0-2.29a8.19,8.19,0,0,0,7.45-4q2.46-4,2.47-12t-2.47-11.87a9,9,0,0,0-14.88,0q-2.49,3.95-2.49,11.87t2.49,12A8.19,8.19,0,0,0,251,40.5Z"/><path class="cls-1" d="M312.15,41.22a57.23,57.23,0,0,1-11.83,1.57q-8.25,0-13.08-4.92t-4.84-13.3q0-8.71,4.79-13.44t13.6-4.73a45.06,45.06,0,0,1,11.33,1.52v6.84h-3.46v-.43q0-2.88-.78-3.6c-1.5-1.36-3.88-2-7.16-2a9,9,0,0,0-8,4q-2.65,4-2.66,11.91t2.84,11.91q2.85,4,8.53,4a11.08,11.08,0,0,0,3.46-.59V33.42c0-2.07-.16-3.32-.47-3.74s-1.26-.69-2.86-.8l-.42-.05V26.65h14.73v2.18l-.44.05c-1.57.09-2.51.35-2.83.79s-.47,1.68-.47,3.75Z"/><path class="cls-1" d="M330.27,26.72v8.44a9.89,9.89,0,0,0,.41,3.77c.27.45,1.06.71,2.35.79l.43,0v2.17H319.59V39.75l.45,0c1.57-.11,2.52-.37,2.83-.8s.47-1.68.47-3.76V14c0-2.08-.15-3.33-.46-3.75s-1.25-.69-2.84-.82l-.45,0V7.26h10.1L334,7.14l2.13,0q10.72,0,10.73,8.77a10.73,10.73,0,0,1-1.66,6.06,10.6,10.6,0,0,1-5,3.83l6.76,9.44a28.3,28.3,0,0,0,3.18,3.89,5.19,5.19,0,0,0,2.63.63l.45,0v2.17H342.85l-9.6-15.2Zm0-2.29h1.29a7.85,7.85,0,0,0,5.83-2.18,8.06,8.06,0,0,0,2.15-5.95q0-6.73-6.65-6.74h-2.62Z"/><path class="cls-1" d="M374.46,42.79q-8.18,0-12.88-4.88t-4.71-13.32q0-8.44,4.71-13.32T374.46,6.4q8.16,0,12.86,4.87T392,24.59q0,8.43-4.71,13.32T374.46,42.79Zm0-2.29a8.19,8.19,0,0,0,7.45-4q2.47-4,2.47-12t-2.47-11.87a9,9,0,0,0-14.88,0q-2.49,3.95-2.48,11.87t2.48,12A8.2,8.2,0,0,0,374.47,40.5Z"/><path class="cls-1" d="M396.24,7.26H411V9.44l-.42,0c-1.6.13-2.56.4-2.87.82s-.45,1.67-.45,3.75V29c0,4.16.58,7.11,1.76,8.86s3.16,2.62,6,2.62c3,0,5.15-.93,6.51-2.77s2-4.82,2-8.9V14q0-3.12-.45-3.75c-.31-.42-1.27-.69-2.87-.82l-.42,0V7.26h10.88V9.44l-.42,0c-1.57.13-2.51.4-2.81.82S427,12,427,14V28.27q0,7.47-3.15,11T414,42.79q-14,0-14-14V14.19c0-2.09-.16-3.35-.47-3.79s-1.26-.7-2.83-.8l-.45,0Z"/><path class="cls-1" d="M445.23,27.71v7.45c0,2.11.18,3.37.52,3.77s1.46.67,3.37.79l.45,0v2.17h-15V39.75l.45,0c1.58-.11,2.52-.37,2.83-.8s.47-1.68.47-3.76V14c0-2.08-.15-3.33-.46-3.75s-1.25-.69-2.84-.82l-.45,0V7.26h10.68l4.48-.12,2,0q10.24,0,10.24,9.17,0,5.7-3.63,8.57t-10.89,2.87Zm0-2.3h1.39c2.65,0,4.64-.71,6-2.15s2-3.58,2-6.44q0-7.26-6.82-7.26h-2.53Z"/><path class="cls-1" d="M60.38.22,33.49,0c-21.38,12.12-30,40.21-6.84,45.62,17,4,34.83-9,33.28-21.6L41.42,26l-.88,3.52,7.05-.44C43.85,43,25.09,45.49,23.13,32.62,20.7,16.75,60.38.22,60.38.22Z"/><path class="cls-1" d="M20,45.18C-8.39,36.59.42,10.58,4.83,6l12.79.22C-3.1,24.69,12.33,42.54,20,45.18Z"/></g></g></svg>