<svg xmlns="http://www.w3.org/2000/svg" viewBox="0 0 232.41 45.5"><defs><style>.cls-1{fill:#c7000b;}.cls-2{fill:#3e3a39;}</style></defs><g id="Layer_2" data-name="Layer 2"><g id="レイヤー_1" data-name="レイヤー 1"><path class="cls-1" d="M17.38,7.63c5.27,0,9.62,1,12.92,3.1a11.88,11.88,0,0,1,5.93,10.71,11.54,11.54,0,0,1-3.44,8.33A16.58,16.58,0,0,1,25,34.08l9.31,8.25A22.75,22.75,0,1,0,5.76,7.63Z"/><path class="cls-1" d="M3.2,26.05H18.45a13.74,13.74,0,0,0,4.39-.61,7.69,7.69,0,0,0,.95-.46,3.86,3.86,0,0,0,2.11-3.6c0-2.29-.84-4.91-7.45-4.91H.88a22.74,22.74,0,0,0,21.87,29c.54,0,1.06,0,1.59-.06Z"/><path class="cls-2" d="M102.16,37.45a4.11,4.11,0,0,1-.57,1.88,7.44,7.44,0,0,1-1.68,2.05,10.47,10.47,0,0,1-2.67,1.68,8.5,8.5,0,0,1-3.47.69A11.58,11.58,0,0,1,88,42.65a5.48,5.48,0,0,1-2.48-2.77c-.89-2.27-1.68-4.33-2.35-6.18A34,34,0,0,0,81,28.93a9.52,9.52,0,0,0-2.54-3.06,5.93,5.93,0,0,0-3.66-1.07c-.81,0-1.31.13-1.52.4V37.34q0,3.34,5.65,3.35v2.43H57.1V40.69q5.46,0,5.46-3.35V10.58q0-3.23-5.91-3.23V4.8h10c1.4,0,2.58,0,3.56,0s2,0,3-.08,2.28-.07,3.66-.09,3.12,0,5.24,0a18.46,18.46,0,0,1,5.66.76,10.7,10.7,0,0,1,3.84,2.05,7.53,7.53,0,0,1,2.16,3.06,10.7,10.7,0,0,1,.67,3.85,7.62,7.62,0,0,1-3.3,6.39,18.34,18.34,0,0,1-9,3.1,35.31,35.31,0,0,1,4,.69,10.62,10.62,0,0,1,2.79,1.07,7.13,7.13,0,0,1,1.94,1.62,11,11,0,0,1,1.43,2.22A22.65,22.65,0,0,1,93.71,33c.34,1.21.69,2.3,1.05,3.26A9.77,9.77,0,0,0,96,38.64a2.28,2.28,0,0,0,1.94.89c.94,0,1.66-.88,2.17-2.66ZM75.91,21.91a21.92,21.92,0,0,0,3.08-.2,5.24,5.24,0,0,0,2.35-.93,4.62,4.62,0,0,0,1.53-2.18,11.62,11.62,0,0,0,.54-3.94,9,9,0,0,0-.54-3.37,5.06,5.06,0,0,0-3.65-3.22,11.37,11.37,0,0,0-2.74-.32H75.21c-1.27,0-1.9.95-1.9,2.84V21.33c.12.39.46.58,1,.58Z"/><path class="cls-2" d="M106.1,43.12V40.69c3.82,0,5.72-1.12,5.72-3.35V11.68q0-4.34-6.16-4.33V4.8h36.49l.5,11.33-3.87.29a14,14,0,0,0-1.66-4.88,6.77,6.77,0,0,0-2.6-2.49,9,9,0,0,0-3.5-.92C129.71,8,128.24,8,126.63,8a7.62,7.62,0,0,0-3.24.55,1.71,1.71,0,0,0-1.14,1.58V20.24c0,.92.48,1.38,1.46,1.38a21.82,21.82,0,0,0,2.8-.17,5.84,5.84,0,0,0,2.25-.78,4.52,4.52,0,0,0,1.62-1.82,8.9,8.9,0,0,0,.83-3.3h3.69V31h-3.69a13.12,13.12,0,0,0-.64-3.18A4.07,4.07,0,0,0,129.34,26a4.5,4.5,0,0,0-2-.86,18.66,18.66,0,0,0-2.92-.29q-2.16.16-2.16,1.56v10.8q0,2.78,4.77,2.78a28.23,28.23,0,0,0,6.19-.55A10,10,0,0,0,137,37.71a8.46,8.46,0,0,0,2.35-2.86,44.71,44.71,0,0,0,1.84-4.16l3.62.46-1.77,12Z"/><path class="cls-2" d="M169.92,43.12V40.75c.59-.08,1.22-.16,1.88-.23s1.25-.17,1.78-.26a7.65,7.65,0,0,0,1.3-.35c.34-.13.51-.28.51-.43a1.67,1.67,0,0,0-.16-.67c-.11-.25-.22-.53-.35-.84l-2.8-7a1.68,1.68,0,0,0-1.27-.89,8.17,8.17,0,0,0-2.1-.26h-9.28c-1.35,0-2.18.38-2.48,1.15l-2,5.9a2.9,2.9,0,0,0-.19.63,4.47,4.47,0,0,0-.06.75q0,2.27,5.4,2.26v2.66H145.26V40.46a6.06,6.06,0,0,0,5.27-3.93L165.6,3.88l5.91.75,14.81,33.86a2.29,2.29,0,0,0,.83,1,4.51,4.51,0,0,0,1.3.64,13,13,0,0,0,1.49.37,13.68,13.68,0,0,0,1.47.21v2.37Zm-5.08-29.76-5,11a6.24,6.24,0,0,0-.7,1.74c0,.3.66.46,2,.46h7.81c1,0,1.53-.08,1.53-.23a21.9,21.9,0,0,0-1.21-3.12Z"/><path class="cls-2" d="M194.84,43.12V40.69q5.46,0,5.46-2.66V11.27q0-3.91-6.16-3.92V4.8h22.31V7.35q-5.72,0-5.72,3.92V38c0,1.27,1.23,1.91,3.69,1.91h1.08q2.79,0,4.77-.15a7.44,7.44,0,0,0,3.43-1,8.27,8.27,0,0,0,2.64-2.83,29.48,29.48,0,0,0,2.38-5.46l3.69.35-2,12.31Z"/></g></g></svg>