<svg xmlns="http://www.w3.org/2000/svg" viewBox="0 0 573.29 23.74"><defs><style>.cls-1{fill:#fff;}</style></defs><g id="Layer_2" data-name="Layer 2"><g id="レイヤー_1" data-name="レイヤー 1"><path class="cls-1" d="M8.8,9.55H.42v2.5H6.07a12.09,12.09,0,0,1-6.07,8l1.67,2.42c1.4-.95,5-3.4,7.13-10.67Zm8.75-7.18A41.69,41.69,0,0,0,6.35.2L5.52,2.65c6.13.6,7.35.75,11,2.37Zm-.78,12a58.47,58.47,0,0,0,6.62-6.77L21,5.77a31.38,31.38,0,0,1-5.7,6.33,18.57,18.57,0,0,1-2-6.28V4.9H4V7.32h6.65V20.55c0,.47-.1.57-.63.57H6.07l.48,2.62H11a2.19,2.19,0,0,0,2.32-2.37V12.65a22,22,0,0,0,9.07,9.89L24.07,20A22.64,22.64,0,0,1,16.77,14.32Zm28.7.6h5.77V12.45H45.47V7.72h6.7V5.25H45.69L47.24,3a34.12,34.12,0,0,0-5-3l-1.6,2.1a23.13,23.13,0,0,1,4.9,3.15H36.2V7.72h6.62v4.73H37v2.47h5.8v5.55H35.57v2.42H52.74V20.47H45.47ZM33.1.27a20,20,0,0,1-4.33,10.3l1.13,3.2a18.31,18.31,0,0,0,1.72-2.07v12h2.55V6.82A21.07,21.07,0,0,0,35.7.6ZM76.76,7.5A29.88,29.88,0,0,1,79,11l1.8-1.07a18,18,0,0,0-2.22-3.35Zm.92,4a18.76,18.76,0,0,0-2.32-3.6l-1.75.93a25,25,0,0,1,2.22,3.7ZM66.84,14.65c0-3.38,3.17-6.8,6.72-8.58a10.7,10.7,0,0,1,5-1.17,20.17,20.17,0,0,1,2.17.1l-.05-2.83c-2.57.1-14,.55-16.19.65-1.73.08-3.6.18-5.33.18l.1,2.85C63.09,5.52,67,5.22,70.86,5,65.29,8.4,64,12.3,64,14.87a6.81,6.81,0,0,0,3.73,5.85C70,21.89,72.63,22.52,78,22.54l.4-3C71.21,19.8,66.84,18.45,66.84,14.65Zm26,3.07c0-.45.23-1.75,2.15-3.1l-2-1.32c-2.83,2-2.83,4.05-2.83,4.55,0,.35,0,3.52,4.7,4.34a49.27,49.27,0,0,0,7,.38c2.45,0,3.77-.1,4.67-.18V19.75a49.46,49.46,0,0,1-6.25.27C96.71,20,92.88,20,92.88,17.72Zm8.8-8.4A26.89,26.89,0,0,1,101,6.55a33.44,33.44,0,0,0,6.13-.85l-.28-2.55a28.42,28.42,0,0,1-6.27.95,24.43,24.43,0,0,1-.25-2.9l-2.88.22c0,.75.1,1.48.3,2.83-.15,0-.77,0-.84,0H89.08V6.75H96.9l1.25,0c.38,1.5.6,2.28.73,2.7-1.08,0-1.43,0-1.85,0H88.18V11.9h8.65c1,0,1.87,0,2.87,0A16,16,0,0,0,102.23,17l2.52-1.28a12.31,12.31,0,0,1-2.25-3.95,31.82,31.82,0,0,0,6.68-1l-.43-2.42A32,32,0,0,1,101.68,9.32Zm26.45-1.05a5.91,5.91,0,0,0-2.82.53c.5-.43.75-.65,1-.93,1.18-1.07,3-2.85,4.2-3.92V1.57H116.66v2.6l9.92-.1c-1.37,1.3-11,10.35-11.65,10.88l1.73,2.32c1.32-1.42,2.52-2.65,4.4-4.35a11,11,0,0,1,6.52-2.2c1.75,0,4.6.63,4.6,4.23a4.82,4.82,0,0,1-3.75,4.87c.18-3.72-2.27-5.42-4.7-5.42-2.1,0-4.47,1.3-4.47,3.75,0,.35,0,4.42,6.55,4.42,3.22,0,4.82-.65,6.1-1.55a7.5,7.5,0,0,0,3-6.2C134.93,13.52,134.6,8.27,128.13,8.27Zm-2.22,11.9c-1.33,0-4.15,0-4.15-1.87,0-.85.7-1.53,1.87-1.53,2.3,0,2.38,2.48,2.38,2.65A3.52,3.52,0,0,1,125.91,20.17ZM151.41,9.3a16.14,16.14,0,0,0-1.75-4.15L148,5.92V.3h-2.57V23.69H148V6.2a15.81,15.81,0,0,1,1.38,4ZM158.53,14h7.2V11.62h-1.5V3.82H158V.3h-2.48V3.82h-5V6.15h5V9.32c0,1.48,0,2-.05,2.3h-6.37V14h6c-.52,2.3-1.7,5.6-6.7,7.47l1.38,2.27a12.37,12.37,0,0,0,7.25-7.59c.95,2.32,2.6,5.24,7.74,7.59l1.28-2.5C160.46,19.07,159.06,15.55,158.53,14ZM158,9.4V6.15h3.87v5.47H158C158,10.92,158,10.77,158,9.4Zm-16.2,2.77,2,1.08c.68-2,.8-4.33.8-7.83h-2.12C142.46,10.15,142,11.45,141.81,12.17Zm35.55,5.18V9.82h-4.88v2.53h2.4v6.7a21.68,21.68,0,0,1-2.7,1.87l1.2,2.75a23.17,23.17,0,0,0,3.43-3.43,6.11,6.11,0,0,0,2.5,2.05,10.42,10.42,0,0,0,3.62.73h12.62l.5-2.45H182.93C182.63,20.57,178.21,20.57,177.36,17.35ZM182.55,5.6h-3.34V19.42h2.35V7.52h4.29V9.2h-3.69v1.92h3.69v1.43h-2.92v5.32h6.7l.25,1.75h2.8a1.91,1.91,0,0,0,2-2.05V5.6H191.3a16.93,16.93,0,0,0,.55-1.83h3.85V1.65h-7.5V.27h-2.5V1.65h-7.29V3.77h3.72C182.18,4,182.4,4.92,182.55,5.6ZM189,16.07h-4V14.32h4Zm3.42-8.55v9.25c0,.53-.22.58-.55.58H191v-4.8h-2.95V11.12h3.77V9.2h-3.77V7.52Zm-2.77-3.75a10.18,10.18,0,0,1-.45,1.83h-4.43c-.17-1-.2-1.18-.35-1.83ZM178.28,5a28.1,28.1,0,0,0-3.7-4.4l-1.82,1.5a33.9,33.9,0,0,1,3.45,4.53ZM214.86,6.8V4.2h-5.25c0-.2.55-2.65.63-3l-2.88-.05c-.15,1.07-.27,2-.47,3.05h-4.55V6.8h4a61.06,61.06,0,0,1-4,12.07l2.67,1.2A86.27,86.27,0,0,0,209.14,6.8Zm4.23.07a16.11,16.11,0,0,1,2.87-.2c.8,0,1.32,0,2.15.1l0-2.92a35.3,35.3,0,0,0-7.79.62l.3,9.05a9.6,9.6,0,0,0-2.08-.2c-3.9,0-6.3,1.9-6.3,4.83,0,1.22.58,4.59,5.85,4.59,1.73,0,3.9-.5,4.7-2a8.43,8.43,0,0,0,.53-3.37,19.49,19.49,0,0,1,3.74,3l1.65-2.63a17.22,17.22,0,0,0-5.34-3.4Zm-2.43,11c0,.7,0,2.38-2.8,2.38-1,0-3-.33-3-2.08,0-1.52,1.4-2.45,3.48-2.45a6.69,6.69,0,0,1,2.32.4Zm14.49-11.6H249a20.18,20.18,0,0,1-7.47,7.9,39.39,39.39,0,0,0-4.63-3.52l-2.05,1.9a44.41,44.41,0,0,1,10,10l2.58-2.15c-.85-1-2.13-2.55-4-4.37A28.36,28.36,0,0,0,249,11.37a17,17,0,0,0,4.29-7.77H231.15ZM260.88,19.1l.93,3.14c11.07-1.37,16.47-6.09,20.14-16.77L279.13,4.2C275.65,14.82,270.23,18.42,260.88,19.1Zm8.85-13A27.57,27.57,0,0,0,262,2.65L260.63,5.1a27.76,27.76,0,0,1,7.55,3.67Zm26.93,4.08a28.44,28.44,0,0,0-7-2.75l-1.3,2.52a34.66,34.66,0,0,1,7,2.85Zm2.1-5.53a30.23,30.23,0,0,0-7.22-2.77l-1.3,2.47a35.33,35.33,0,0,1,7.24,2.88ZM289.71,19l.7,3c11.7-.92,16-6.82,19-15.37l-2.72-1.2C303.53,15.15,299.13,18.52,289.71,19Zm28.73-9.58h11.1V13h-10.9v2.48h10.9v3.92h-11.4v2.5h14.07V7H318.44ZM341.9,19.1l.92,3.14c11.07-1.37,16.47-6.09,20.15-16.77L360.14,4.2C356.67,14.82,351.24,18.42,341.9,19.1Zm8.84-13A27.53,27.53,0,0,0,343,2.65L341.65,5.1a28.05,28.05,0,0,1,7.55,3.67ZM369.8,10.7h16.92a10,10,0,0,1-4.42,7A19.36,19.36,0,0,1,373,20.2l.77,2.59C388.45,21.37,389.42,13.22,390,8H369.8Zm18.92-8.6H371.6V4.75h17.12ZM397,13.55l1.42,2.4a38.44,38.44,0,0,0,9.25-4.38V22.89h3V9.45a74.47,74.47,0,0,0,7.09-6.58l-2.69-1.65A36.68,36.68,0,0,1,397,13.55Zm29-7.85h16.47c-.73,4.42-2.13,12.32-14.25,14.17l1.13,2.65c13.64-2.52,15.82-12.2,16.47-19.47H426.07Zm38.09-3.48c-7.42,0-11.67,5.08-11.67,11.1,0,3.5,1.65,7.25,4.93,7.25,2.9,0,4.37-2.75,4.79-3.52,1.9-3.58,2.33-8,2.73-12.2,5.9.37,6.57,4.92,6.57,6.9,0,7.75-6.1,8-9.07,8.15l.72,2.64c2.6-.12,11.48-.6,11.48-10.52C474.64,7.92,472.46,2.22,464.16,2.22Zm-6.64,15.6c-1.25,0-2.3-1.42-2.3-4.12,0-2.2.9-7.68,6.87-8.73C461.84,8.47,460.87,17.82,457.52,17.82ZM492.2,11.3c.87-.35,3-1.15,7.5-1.15,1,0,1.65,0,2.27.07l0-2.75C495.87,7.4,493.67,8,491.35,9Zm2.32-6.88H488c.25-1.8.3-2.35.4-3.07l-2.87-.1c0,.8,0,1.1-.28,3.17h-3.8V7h3.48c-.63,3.8-2,10.45-4.05,14.67l2.65.95C485.6,17.9,487.33,8.75,487.6,7h6.92ZM492,17.8c0-.38.1-1.43,1.58-2.93l-2-1.45a6.6,6.6,0,0,0-2.12,4.45c0,4.65,5.85,4.65,8.52,4.65a36.69,36.69,0,0,0,4.33-.13l0-2.69A46.35,46.35,0,0,1,497,20C495.47,20,492,20,492,17.8Zm35.16-11a10.27,10.27,0,0,0-4.62-1.72c.17-1.38.27-3,.32-3.83l-2.7-.17a37.71,37.71,0,0,1-.22,4A14.6,14.6,0,0,0,514,7a24.21,24.21,0,0,1-.7-4.83l-2.72.6a25.19,25.19,0,0,0,1.22,5.93,9.58,9.58,0,0,0-2.77,6.7c0,3.3,1.77,5.42,4.37,5.42,2.35,0,6.65-1.72,8.73-13.1,1.6.28,5.42.95,5.42,6,0,4-2.67,5-3.5,5.38a14.3,14.3,0,0,1-5.75.77l.7,2.7c2.65-.08,11.4-.33,11.4-8.67A8.65,8.65,0,0,0,527.13,6.82ZM513.61,18.1c-1.2,0-2-1.15-2-2.9a6.48,6.48,0,0,1,1.25-3.83,22.16,22.16,0,0,0,3.15,5.3A3.76,3.76,0,0,1,513.61,18.1Zm3.85-3.65a19.57,19.57,0,0,1-2.7-5,9.52,9.52,0,0,1,4.77-1.72A25.59,25.59,0,0,1,517.46,14.45Zm40-11.25H545.08V5.8h12.37ZM539.13,1.47a91.43,91.43,0,0,0-.92,11.93,38.07,38.07,0,0,0,.95,9.22l2.77-.35a36.24,36.24,0,0,1-.95-9,72.24,72.24,0,0,1,1-11.55ZM547,15.92a6.22,6.22,0,0,1,1.15-3.25l-2.3-1A8.3,8.3,0,0,0,544.41,16c0,5.2,5.62,5.2,8.89,5.2,1,0,2.93,0,4.58-.15V18.3a35.09,35.09,0,0,1-4.93.3C549.8,18.6,547,18.6,547,15.92Zm22.46-.87a3.86,3.86,0,1,0,3.85,3.87A3.87,3.87,0,0,0,569.44,15.05Zm0,6.32a2.46,2.46,0,1,1,2.45-2.45A2.45,2.45,0,0,1,569.44,21.37Z"/></g></g></svg>