<svg xmlns="http://www.w3.org/2000/svg" viewBox="0 0 523.45 116.33"><defs><style>.cls-1{fill:#c7000b;}.cls-2{fill:#fff;}</style></defs><g id="Layer_2" data-name="Layer 2"><g id="レイヤー_1" data-name="レイヤー 1"><path class="cls-1" d="M383.31.7l-13.65,34L355.87.7H341.73V49.84h12V20.3l11.06,29.54h9.66l11-29.47V49.84h12V.7Z"/><path class="cls-1" d="M406,.7V49.84h12V.7Z"/><path class="cls-1" d="M470.6.7h-12V31.15L438.61.7h-12V49.84h12V19.53l20,30.31h12Z"/><path class="cls-1" d="M497.69.7H479.28V49.84h18.41a28.69,28.69,0,0,0,13.55-3.08,21.85,21.85,0,0,0,9-8.68,25.47,25.47,0,0,0,3.18-12.81,25.42,25.42,0,0,0-3.18-12.84,22,22,0,0,0-9-8.65A28.61,28.61,0,0,0,497.69.7Zm-.77,38.78h-5.67V10.92h5.67q6.79,0,10.57,3.78t3.78,10.57q0,6.79-3.78,10.5t-10.57,3.71Z"/><path class="cls-1" d="M171.57,91.2a26.22,26.22,0,0,0,3.15,13A22.66,22.66,0,0,0,183.5,113a25.56,25.56,0,0,0,12.78,3.18,24.63,24.63,0,0,0,15-4.58A22.06,22.06,0,0,0,219.59,99H206.43a10.62,10.62,0,0,1-4.17,4.69,11.72,11.72,0,0,1-6.12,1.61,11.41,11.41,0,0,1-9-3.85q-3.44-3.85-3.43-10.29t3.43-10.29a11.41,11.41,0,0,1,9-3.85,11.72,11.72,0,0,1,6.12,1.61,10.62,10.62,0,0,1,4.17,4.69h13.16a22.2,22.2,0,0,0-8.33-12.6,24.46,24.46,0,0,0-15-4.62,25.47,25.47,0,0,0-12.78,3.19,22.48,22.48,0,0,0-8.78,8.89,26.39,26.39,0,0,0-3.15,13Z"/><path class="cls-1" d="M250.18,116.33a25.43,25.43,0,0,0,12.67-3.22,24,24,0,0,0,9.1-9,26.82,26.82,0,0,0,0-25.94,23.66,23.66,0,0,0-9.1-9,26.67,26.67,0,0,0-25.41,0,24.12,24.12,0,0,0-9.17,9,26.51,26.51,0,0,0,0,25.94,24.06,24.06,0,0,0,9.17,9,25.63,25.63,0,0,0,12.71,3.22Zm0-10.92a12.2,12.2,0,0,1-9.49-3.88q-3.54-3.89-3.53-10.4t3.53-10.43a12.25,12.25,0,0,1,9.49-3.85,12.11,12.11,0,0,1,9.41,3.89q3.54,3.89,3.54,10.39t-3.54,10.36a12.06,12.06,0,0,1-9.41,3.92Z"/><path class="cls-1" d="M323.54,66.7l-13.65,34-13.79-34H282v49.14h12V86.3L305,115.84h9.66l11-29.47v29.47h12V66.7Z"/><path class="cls-1" d="M346.22,66.7v49.14h12V96h15V86.65h-15V76.29h20V66.7Z"/><path class="cls-1" d="M407.75,116.33a25.43,25.43,0,0,0,12.67-3.22,24,24,0,0,0,9.1-9,26.82,26.82,0,0,0,0-25.94,23.66,23.66,0,0,0-9.1-9,26.67,26.67,0,0,0-25.41,0,24.12,24.12,0,0,0-9.17,9,26.51,26.51,0,0,0,0,25.94,24.06,24.06,0,0,0,9.17,9,25.63,25.63,0,0,0,12.71,3.22Zm0-10.92a12.2,12.2,0,0,1-9.49-3.88q-3.54-3.89-3.53-10.4t3.53-10.43a12.25,12.25,0,0,1,9.49-3.85,12.11,12.11,0,0,1,9.41,3.89q3.54,3.89,3.54,10.39t-3.54,10.36a12.06,12.06,0,0,1-9.41,3.92Z"/><path class="cls-1" d="M478.1,115.84,466.76,96.38a14.83,14.83,0,0,0,8.15-5.46,14.65,14.65,0,0,0,2.77-8.75,15.54,15.54,0,0,0-2-7.87,14,14,0,0,0-6.13-5.57,22.15,22.15,0,0,0-9.9-2H439.53v49.14h12V97.29h2.87l10.22,18.55Zm-26.6-39.2h7.42a6.8,6.8,0,0,1,4.93,1.61,5.87,5.87,0,0,1,1.65,4.41,6.06,6.06,0,0,1-1.65,4.55,6.8,6.8,0,0,1-4.93,1.61H451.5Z"/><path class="cls-1" d="M482.51,66.7v9.59h13v39.55h12V76.29h13V66.7Z"/><path class="cls-2" d="M12,32.2h7.42A21.17,21.17,0,0,0,29.47,30a14.46,14.46,0,0,0,6-5.7,15.81,15.81,0,0,0,2-7.81,16.31,16.31,0,0,0-2-8.19,13.9,13.9,0,0,0-6.09-5.6,22.12,22.12,0,0,0-9.94-2H0V49.84H12Zm0-21.84h6.51A7.15,7.15,0,0,1,23.59,12a6,6,0,0,1,1.68,4.55,6,6,0,0,1-1.68,4.55,7.15,7.15,0,0,1-5.11,1.61H12ZM73.78,40.25H55.65V29.47h16V20.23h-16V10.29H73.78V.7H43.68V49.84h30.1Zm20,.91h18.34l2.94,8.68h12.67L110,.7H96.11L78.33,49.84H90.86ZM103,13.93l6.09,18H97Zm52.71-2.87a11.72,11.72,0,0,1,6.12,1.61A10.62,10.62,0,0,1,166,17.36h13.16a22.2,22.2,0,0,0-8.33-12.6,24.46,24.46,0,0,0-15-4.62A25.47,25.47,0,0,0,143,3.33a22.48,22.48,0,0,0-8.78,8.89,26.39,26.39,0,0,0-3.15,13,26.22,26.22,0,0,0,3.15,13A22.66,22.66,0,0,0,143,47a25.56,25.56,0,0,0,12.78,3.18,24.63,24.63,0,0,0,15-4.58A22.06,22.06,0,0,0,179.13,33H166a10.62,10.62,0,0,1-4.17,4.69,11.72,11.72,0,0,1-6.12,1.61,11.41,11.41,0,0,1-9-3.85q-3.43-3.86-3.43-10.29t3.43-10.29A11.41,11.41,0,0,1,155.68,11.06Zm30.8,38.78h30.1V40.25H198.45V29.47h16V20.23h-16V10.29h18.13V.7h-30.1ZM272.33,3.22a26.67,26.67,0,0,0-25.41,0,24.12,24.12,0,0,0-9.17,9,25,25,0,0,0-3.39,13,25.12,25.12,0,0,0,3.39,13,24,24,0,0,0,9.17,9,26.62,26.62,0,0,0,25.38,0,23.9,23.9,0,0,0,9.1-9,25.29,25.29,0,0,0,3.36-13,25.33,25.33,0,0,0-3.33-12.95A23.66,23.66,0,0,0,272.33,3.22ZM269,35.49a12.06,12.06,0,0,1-9.41,3.92,12.24,12.24,0,0,1-9.49-3.88q-3.54-3.9-3.53-10.4t3.53-10.43a13.48,13.48,0,0,1,18.9,0q3.54,3.9,3.54,10.4T269,35.49Zm54.36-25.2V.7h-32V49.84h12V30h15V20.65h-15V10.29ZM18.2,66.7.42,115.84H13l2.94-8.68H34.23l2.94,8.68H49.84L32.06,66.7ZM19,97.92l6-18,6.09,18Zm68.18-.77L67.2,66.7h-12v49.14h12V85.53l20,30.31h12V66.7h-12Zm52.64-27.37a28.64,28.64,0,0,0-13.58-3.08H107.87v49.14h18.41a28.65,28.65,0,0,0,13.54-3.08,21.85,21.85,0,0,0,9-8.68A25.37,25.37,0,0,0,152,91.27a25.39,25.39,0,0,0-3.19-12.85A22,22,0,0,0,139.86,69.78Zm-3.78,32q-3.78,3.7-10.57,3.71h-5.67V76.92h5.67q6.78,0,10.57,3.78t3.78,10.57Q139.86,98.07,136.08,101.77Z"/></g></g></svg>